<svg xmlns="http://www.w3.org/2000/svg" xmlns:xlink="http://www.w3.org/1999/xlink" version="1.1" id="Layer_1" x="0px" y="0px" viewBox="0 0 212.5 26.1" enable-background="new 0 0 212.5 26.1" xml:space="preserve">
<path fill="#010101" d="M10.7 14.5c3.2 0.5 5.6 1.9 5.6 5.1c0 2.1-1.1 3.8-3 4.8c-1.6 0.9-3.7 1.3-6.3 1.3H0v-0.9 c2.7-0.2 2.9-0.4 2.9-3V8.8c0-2.6-0.1-2.8-2.7-3V4.9h8.2c2.4 0 3.8 0.4 4.8 1.1C14.4 6.7 15 8.1 15 9.6C15 12.6 12.5 13.9 10.7 14.5 L10.7 14.5z M7.1 14.1c3.5 0 4.9-1.4 4.9-4.1c0-2.2-1.2-4.1-4.2-4.1C7.1 5.9 6.4 6 6.1 6.2C5.7 6.4 5.6 6.8 5.6 7.8v6.3H7.1z M5.6 21.6c0 2.3 0.6 2.9 2.6 2.9c2.6 0 4.9-1.3 4.9-4.7c0-3.3-2.2-4.7-6.1-4.7H5.6V21.6z M34.2 18.1c0 5.3-4.1 8-7.9 8 c-5.1 0-8-3.8-8-7.5c0-5.6 4.5-8.1 8-8.1C31 10.4 34.2 13.7 34.2 18.1z M21.3 17.8c0 4.3 2.2 7.3 5.3 7.3c2.4 0 4.6-1.8 4.6-6.4 c0-3.6-1.9-7.3-5.2-7.3C23.5 11.4 21.3 13.6 21.3 17.8z M56.9 11.7c-1.7 0.2-1.9 0.5-2.6 2.1c-0.6 1.7-2.1 6.1-4.1 12.2h-0.9 l-4.1-10.4h-0.1l-3.9 10.4h-0.9l-3.8-12c-0.6-1.9-1-2.1-2.5-2.3v-0.9h6.4v0.9l-0.7 0.1c-1 0.2-1.2 0.3-0.8 1.5l2.7 8.6h0.1l3.8-10.6 h0.8l4.1 10.5h0.1c0.8-2.4 2-6.3 2.5-8.4c0.3-1.1 0.1-1.4-1-1.6l-0.8-0.1v-0.9h5.6V11.7z M64.6 10.8c2.7 0 5.1 0.5 6.7 2 c1.1 1.1 2 2.8 2 4.9c0 5.5-4.4 7.9-9.6 7.9h-6.4v-0.9c2.1-0.2 2.3-0.4 2.3-2.6v-7.9c0-2.4-0.2-2.5-2.1-2.6v-0.9H64.6z M62.2 22 c0 2 0.5 2.5 2.3 2.5c3.8 0 5.8-2.5 5.8-6.4c0-4.7-2.6-6.3-6.1-6.3c-0.9 0-1.6 0.2-1.8 0.4c-0.2 0.2-0.3 0.6-0.3 1.5V22z M90.9 18.1 c0 5.3-4.1 8-7.9 8c-5.1 0-8-3.8-8-7.5c0-5.6 4.5-8.1 8-8.1C87.7 10.4 90.9 13.7 90.9 18.1z M78 17.8c0 4.3 2.2 7.3 5.3 7.3 c2.4 0 4.6-1.8 4.6-6.4c0-3.6-1.9-7.3-5.2-7.3C80.3 11.4 78 13.6 78 17.8z M91.9 25.6v-0.9c2-0.2 2.2-0.3 2.2-2.6v-7.9 c0-2.3-0.2-2.5-2.2-2.6v-0.9H99v0.9c-2.1 0.2-2.3 0.3-2.3 2.6v7.9c0 2.3 0.2 2.5 2.3 2.6v0.9H91.9z M116.6 11.7 c-1.5 0.1-2.1 0.4-2.2 1.4c-0.1 0.9-0.2 1.9-0.2 4.1v8.6h-1.1l-9.6-11.6h0v5c0 2.2 0.1 3.4 0.2 4.1c0.1 1 0.7 1.3 2.5 1.4v0.9h-6.2 v-0.9c1.5-0.1 2-0.4 2.2-1.4c0.1-0.8 0.2-1.9 0.2-4.1V15c0-2.6-0.5-3.1-2.7-3.3v-0.9h4.3l9.1 10.4h0.1v-4.1c0-2.2-0.1-3.3-0.2-4.1 c-0.1-1.1-0.6-1.3-2.5-1.4v-0.9h6.2V11.7z M143.8 15c0 6.9-4.8 11.1-10.7 11.1c-5.8 0-10.4-4.5-10.4-10.6c0-5.7 4-11.1 10.8-11.1 C138.9 4.4 143.8 8.6 143.8 15z M126 14.6c0 6 3.3 10.4 7.8 10.4c3.6 0 6.7-3 6.7-9.1c0-6.7-3.5-10.3-7.7-10.3 C129.2 5.5 126 8.6 126 14.6z M159.9 25.8h-0.7c-2.6 0-3.6-0.7-4.5-2.1c-0.7-1-1.6-2.5-2-3.3c-0.6-1-0.9-1.2-2.2-1.2h-0.7v3 c0 2.2 0.2 2.4 2.3 2.6v0.9h-7.1v-0.9c2.1-0.2 2.3-0.3 2.3-2.6v-7.9c0-2.3-0.2-2.4-2.2-2.6v-0.9h7c1.6 0 2.8 0.2 3.8 0.8 c0.9 0.6 1.6 1.6 1.6 3.1c0 2.1-1.5 3.3-3 3.8c0.4 0.6 1.4 2.3 2.1 3.3c0.8 1.1 1.2 1.7 1.8 2.2c0.5 0.6 1.2 0.9 1.8 1.1L159.9 25.8 z M151.1 18.2c0.9 0 1.7-0.1 2.3-0.5c0.8-0.5 1.2-1.6 1.2-2.7c0-2.3-1.6-3.3-3.4-3.3c-1.3 0-1.5 0.3-1.5 1.2v5.2H151.1z M159.9 25.6 v-0.9c2-0.2 2.2-0.3 2.2-2.6v-7.9c0-2.3-0.2-2.5-2.2-2.6v-0.9h7.1v0.9c-2.1 0.2-2.3 0.3-2.3 2.6v7.9c0 2.3 0.2 2.5 2.3 2.6v0.9 H159.9z M181 21.7c-0.2 1-0.6 3.3-0.8 3.9h-12.3v-0.9c2.3-0.2 2.4-0.4 2.4-2.6v-7.8c0-2.3-0.2-2.5-2.2-2.6v-0.9h11.5 c0 0.6 0.1 2.2 0.3 3.7l-0.9 0.1c-0.3-1-0.5-1.5-0.9-1.9c-0.4-0.5-0.9-0.7-2.6-0.7h-1.7c-0.8 0-0.9 0-0.9 0.9v4.6h2.3 c1.9 0 2.1-0.2 2.4-1.8h0.9v4.8h-0.9c-0.3-1.6-0.4-1.9-2.4-1.9h-2.3v3.7c0 1.2 0.2 1.8 0.5 2s1.1 0.3 2.5 0.3c1.6 0 2.5-0.2 3-0.8 c0.4-0.4 0.8-1.1 1.2-2.3L181 21.7z M198.3 11.7c-1.5 0.1-2.1 0.4-2.2 1.4c-0.1 0.9-0.2 1.9-0.2 4.1v8.6h-1.1l-9.6-11.6h0v5 c0 2.2 0.1 3.4 0.2 4.1c0.1 1 0.7 1.3 2.5 1.4v0.9h-6.2v-0.9c1.5-0.1 2-0.4 2.2-1.4c0.1-0.8 0.2-1.9 0.2-4.1V15 c0-2.6-0.5-3.1-2.7-3.3v-0.9h4.3l9.1 10.4h0.1v-4.1c0-2.2-0.1-3.3-0.2-4.1c-0.1-1.1-0.6-1.3-2.5-1.4v-0.9h6.2V11.7z M211.6 14.9 c-0.3-1.2-0.5-1.9-0.8-2.4c-0.4-0.5-1.1-0.7-2.5-0.7h-1.4v10.2c0 2.3 0.2 2.5 2.5 2.6v0.9h-7.5v-0.9c2.2-0.2 2.4-0.3 2.4-2.6V11.8 h-1c-2 0-2.5 0.2-2.9 0.8c-0.3 0.5-0.5 1.1-0.8 2.3h-0.9c0.1-1.9 0.3-3.5 0.3-4.6h0.7c0.4 0.5 0.6 0.6 1.2 0.5h9.5 c0.6 0 0.8-0.1 1.2-0.5h0.7c0 1 0.1 3.2 0.3 4.6L211.6 14.9z"/>
<path fill="#010101" d="M35.6 6.9c-0.2 0.4-0.3 0.7-0.5 0.9C34.8 8 34.5 8.1 34 8.1c-0.5 0-0.8 0-1-0.1c-0.2-0.1-0.2-0.3-0.2-0.9 V5.7h0.8c0.7 0 0.8 0.1 0.9 0.7h0.4V4.5h-0.4c-0.1 0.6-0.2 0.7-0.9 0.7h-0.8V3.4c0-0.3 0-0.4 0.4-0.4h0.5c0.6 0 0.9 0.1 1 0.3 c0.1 0.2 0.2 0.4 0.4 0.7l0.4 0c-0.1-0.6-0.1-1.2-0.1-1.5h-4.9V3c0.8 0.1 0.9 0.1 0.9 1v3.1c0 0.9-0.1 1-0.9 1v0.4h5.2 c0.1-0.3 0.3-1.2 0.3-1.6L35.6 6.9z M29.5 8.6V8.2c-0.8-0.1-0.9-0.1-0.9-1V4c0-0.9 0.1-1 0.9-1.1V2.6h-3.1V3c0.7 0.1 0.8 0.1 0.8 1 v1.1h-2.6V4c0-0.9 0.1-1 0.8-1V2.6h-3.1V3c0.8 0.1 0.9 0.1 0.9 1v3.1c0 0.9-0.1 1-0.9 1v0.4h3.1V8.2c-0.7-0.1-0.8-0.1-0.8-1V5.7h2.6 v1.4c0 0.9-0.1 1-0.8 1v0.4H29.5z M21.9 2.4c-0.1-0.8-0.1-1.8-0.1-2.4h-0.3c-0.2 0.2-0.4 0.3-0.7 0.3h-5.1c-0.4 0-0.5 0-0.7-0.3 h-0.3c0 0.7-0.1 1.5-0.2 2.4H15c0.2-0.6 0.3-1 0.5-1.2C15.7 1 15.9 0.8 17 0.8h0.6v6.1c0 1.1-0.1 1.1-1.2 1.2v0.4h4V8.2 C19.1 8.1 19 8 19 6.9V0.8h0.7c0.8 0 1.1 0.1 1.3 0.3c0.2 0.2 0.4 0.6 0.5 1.2L21.9 2.4z"/>
</svg>
